<svg width="22" height="22" viewBox="0 0 22 22" fill="none" xmlns="http://www.w3.org/2000/svg">
<path d="M12.2925 11L18.0675 5.23421C18.2401 5.0616 18.3371 4.82749 18.3371 4.58338C18.3371 4.33927 18.2401 4.10516 18.0675 3.93255C17.8949 3.75994 17.6608 3.66296 17.4167 3.66296C17.1726 3.66296 16.9385 3.75994 16.7659 3.93255L11 9.70755L5.23419 3.93255C5.06158 3.75994 4.82747 3.66296 4.58336 3.66296C4.33925 3.66296 4.10514 3.75994 3.93253 3.93255C3.75991 4.10516 3.66294 4.33927 3.66294 4.58338C3.66294 4.82749 3.75991 5.0616 3.93253 5.23421L9.70753 11L3.93253 16.7659C3.84661 16.8511 3.77841 16.9525 3.73188 17.0642C3.68534 17.1759 3.66138 17.2957 3.66138 17.4167C3.66138 17.5377 3.68534 17.6575 3.73188 17.7692C3.77841 17.8809 3.84661 17.9823 3.93253 18.0675C4.01774 18.1535 4.11913 18.2217 4.23083 18.2682C4.34253 18.3147 4.46235 18.3387 4.58336 18.3387C4.70437 18.3387 4.82418 18.3147 4.93589 18.2682C5.04759 18.2217 5.14898 18.1535 5.23419 18.0675L11 12.2925L16.7659 18.0675C16.8511 18.1535 16.9525 18.2217 17.0642 18.2682C17.1759 18.3147 17.2957 18.3387 17.4167 18.3387C17.5377 18.3387 17.6575 18.3147 17.7692 18.2682C17.8809 18.2217 17.9823 18.1535 18.0675 18.0675C18.1534 17.9823 18.2216 17.8809 18.2682 17.7692C18.3147 17.6575 18.3387 17.5377 18.3387 17.4167C18.3387 17.2957 18.3147 17.1759 18.2682 17.0642C18.2216 16.9525 18.1534 16.8511 18.0675 16.7659L12.2925 11Z" fill="black"/>
</svg>
