<svg width="24" height="26" viewBox="0 0 24 26" fill="none" xmlns="http://www.w3.org/2000/svg">
<path d="M11.6667 17V19.6667M3.66667 25H19.6667C20.3739 25 21.0522 24.719 21.5523 24.219C22.0524 23.7189 22.3333 23.0406 22.3333 22.3333V14.3333C22.3333 13.6261 22.0524 12.9478 21.5523 12.4477C21.0522 11.9476 20.3739 11.6667 19.6667 11.6667H3.66667C2.95942 11.6667 2.28115 11.9476 1.78105 12.4477C1.28095 12.9478 1 13.6261 1 14.3333V22.3333C1 23.0406 1.28095 23.7189 1.78105 24.219C2.28115 24.719 2.95942 25 3.66667 25ZM17 11.6667V6.33333C17 4.91885 16.4381 3.56229 15.4379 2.5621C14.4377 1.5619 13.0812 1 11.6667 1C10.2522 1 8.89562 1.5619 7.89543 2.5621C6.89524 3.56229 6.33333 4.91885 6.33333 6.33333V11.6667H17Z" stroke="black" stroke-width="2" stroke-linecap="round" stroke-linejoin="round"/>
</svg>
