<svg width="18" height="18" viewBox="0 0 18 18" fill="none" xmlns="http://www.w3.org/2000/svg">
<path d="M15.222 8.11822H17M16.111 7.22933V9.00711M8.99904 1.00711H9.34841C8.20635 2.06818 7.47226 3.49586 7.27375 5.04197C7.07524 6.58809 7.42485 8.15487 8.26182 9.46998C9.09879 10.7851 10.3702 11.7654 11.855 12.2404C13.3399 12.7155 14.9442 12.6552 16.3893 12.0702C15.8334 13.4075 14.9249 14.5689 13.7607 15.4305C12.5964 16.292 11.2201 16.8214 9.7786 16.9621C8.33706 17.1029 6.88434 16.8497 5.57541 16.2297C4.26648 15.6096 3.15043 14.646 2.34631 13.4414C1.54219 12.2369 1.08017 10.8367 1.00952 9.39019C0.93888 7.9437 1.26226 6.50515 1.94518 5.22801C2.6281 3.95087 3.64493 2.88304 4.88722 2.13843C6.1295 1.39382 7.55064 1.00035 8.99904 1V1.00711ZM13.444 1.896C13.444 2.3675 13.6313 2.81968 13.9648 3.15308C14.2982 3.48648 14.7505 3.67378 15.222 3.67378C14.7505 3.67378 14.2982 3.86108 13.9648 4.19448C13.6313 4.52787 13.444 4.98006 13.444 5.45155C13.444 4.98006 13.2567 4.52787 12.9233 4.19448C12.5898 3.86108 12.1376 3.67378 11.666 3.67378C12.1376 3.67378 12.5898 3.48648 12.9233 3.15308C13.2567 2.81968 13.444 2.3675 13.444 1.896Z" stroke="black" stroke-width="2" stroke-linecap="round" stroke-linejoin="round"/>
</svg>
