<svg width="36" height="36" viewBox="0 0 36 36" fill="none" xmlns="http://www.w3.org/2000/svg">
<path d="M22.5714 13.5556C22.5714 14.4985 22.0898 15.4029 21.2325 16.0697C20.3752 16.7365 19.2124 17.1111 18 17.1111C16.7876 17.1111 15.6248 16.7365 14.7675 16.0697C13.9102 15.4029 13.4286 14.4985 13.4286 13.5556C13.4286 12.6126 13.9102 11.7082 14.7675 11.0414C15.6248 10.3746 16.7876 10 18 10C19.2124 10 20.3752 10.3746 21.2325 11.0414C22.0898 11.7082 22.5714 12.6126 22.5714 13.5556ZM18 19.7778C15.8783 19.7778 13.8434 20.4333 12.3431 21.6002C10.8429 22.7671 10 24.3498 10 26H26C26 24.3498 25.1571 22.7671 23.6569 21.6002C22.1566 20.4333 20.1217 19.7778 18 19.7778Z" stroke="black" stroke-width="2" stroke-linecap="round" stroke-linejoin="round"/>
</svg>
