<svg width="34" height="34" viewBox="0 0 34 34" fill="none" xmlns="http://www.w3.org/2000/svg">
<path d="M1 25L9.46605 13.9941C9.80891 13.5484 10.216 13.1948 10.6639 12.9536C11.1119 12.7124 11.592 12.5882 12.0769 12.5882C12.5618 12.5882 13.0419 12.7124 13.4899 12.9536C13.9379 13.1948 14.3449 13.5484 14.6878 13.9941L23.1538 25M20.6923 21.8L23.0045 18.7941C23.3474 18.3484 23.7544 17.9948 24.2024 17.7536C24.6504 17.5124 25.1305 17.3882 25.6154 17.3882C26.1003 17.3882 26.5804 17.5124 27.0284 17.7536C27.4764 17.9948 27.8834 18.3484 28.2263 18.7941L33 25M3.46154 33H30.5385C31.1913 33 31.8174 32.6629 32.279 32.0627C32.7407 31.4626 33 30.6487 33 29.8V4.2C33 3.35131 32.7407 2.53737 32.279 1.93726C31.8174 1.33714 31.1913 1 30.5385 1H3.46154C2.8087 1 2.1826 1.33714 1.72097 1.93726C1.25934 2.53737 1 3.35131 1 4.2V29.8C1 30.6487 1.25934 31.4626 1.72097 32.0627C2.1826 32.6629 2.8087 33 3.46154 33ZM20.6923 9H20.7054V9.01707H20.6923V9ZM21.3077 9C21.3077 9.21217 21.2429 9.41566 21.1275 9.56569C21.012 9.71572 20.8555 9.8 20.6923 9.8C20.5291 9.8 20.3726 9.71572 20.2572 9.56569C20.1418 9.41566 20.0769 9.21217 20.0769 9C20.0769 8.78783 20.1418 8.58434 20.2572 8.43432C20.3726 8.28429 20.5291 8.2 20.6923 8.2C20.8555 8.2 21.012 8.28429 21.1275 8.43432C21.2429 8.58434 21.3077 8.78783 21.3077 9Z" stroke="black" stroke-width="2" stroke-linecap="round" stroke-linejoin="round"/>
</svg>
