<svg width="32" height="32" viewBox="0 0 32 32" fill="none" xmlns="http://www.w3.org/2000/svg">
<path d="M17.0904 16.0294L12.3865 20.7333C12.139 20.9823 12.0001 21.3191 12.0001 21.6701C12.0001 22.0212 12.139 22.358 12.3865 22.6069C12.51 22.7315 12.657 22.8303 12.8189 22.8978C12.9808 22.9653 13.1545 23 13.3299 23C13.5053 23 13.679 22.9653 13.8409 22.8978C14.0029 22.8303 14.1498 22.7315 14.2734 22.6069L19.9075 16.9728C20.032 16.8493 20.1309 16.7023 20.1983 16.5404C20.2658 16.3785 20.3005 16.2048 20.3005 16.0294C20.3005 15.854 20.2658 15.6803 20.1983 15.5184C20.1309 15.3564 20.032 15.2095 19.9075 15.0859L14.2734 9.38538C14.1492 9.26222 14.002 9.16479 13.8401 9.09866C13.6782 9.03253 13.5048 8.99901 13.3299 9.00002C13.155 8.99901 12.9817 9.03253 12.8198 9.09866C12.6579 9.16479 12.5106 9.26222 12.3865 9.38538C12.139 9.63434 12.0001 9.97113 12.0001 10.3222C12.0001 10.6732 12.139 11.01 12.3865 11.259L17.0904 16.0294Z" fill="black"/>
</svg>
