<svg width="18" height="18" viewBox="0 0 18 18" fill="none" xmlns="http://www.w3.org/2000/svg">
<path d="M1 13L5.23303 7.49707C5.40446 7.2742 5.60798 7.09742 5.83196 6.9768C6.05595 6.85619 6.29602 6.79411 6.53846 6.79411C6.7809 6.79411 7.02097 6.85619 7.24496 6.9768C7.46895 7.09742 7.67247 7.2742 7.8439 7.49707L12.0769 13M10.8462 11.4L12.0023 9.89707C12.1737 9.6742 12.3772 9.49742 12.6012 9.37681C12.8252 9.25619 13.0653 9.19411 13.3077 9.19411C13.5501 9.19411 13.7902 9.25619 14.0142 9.37681C14.2382 9.49742 14.4417 9.6742 14.6131 9.89707L17 13M2.23077 17H15.7692C16.0957 17 16.4087 16.8314 16.6395 16.5314C16.8703 16.2313 17 15.8243 17 15.4V2.6C17 2.17565 16.8703 1.76869 16.6395 1.46863C16.4087 1.16857 16.0957 1 15.7692 1H2.23077C1.90435 1 1.5913 1.16857 1.36048 1.46863C1.12967 1.76869 1 2.17565 1 2.6V15.4C1 15.8243 1.12967 16.2313 1.36048 16.5314C1.5913 16.8314 1.90435 17 2.23077 17ZM10.8462 5H10.8527V5.00853H10.8462V5ZM11.1538 5C11.1538 5.10609 11.1214 5.20783 11.0637 5.28284C11.006 5.35786 10.9278 5.4 10.8462 5.4C10.7645 5.4 10.6863 5.35786 10.6286 5.28284C10.5709 5.20783 10.5385 5.10609 10.5385 5C10.5385 4.89391 10.5709 4.79217 10.6286 4.71716C10.6863 4.64214 10.7645 4.6 10.8462 4.6C10.9278 4.6 11.006 4.64214 11.0637 4.71716C11.1214 4.79217 11.1538 4.89391 11.1538 5Z" stroke="black" stroke-width="2" stroke-linecap="round" stroke-linejoin="round"/>
</svg>
