<svg width="21" height="26" viewBox="0 0 21 26" fill="none" xmlns="http://www.w3.org/2000/svg">
<path d="M6.33333 3.66667H3.66667C2.95942 3.66667 2.28115 3.94762 1.78105 4.44772C1.28095 4.94781 1 5.62609 1 6.33333V22.3333C1 23.0406 1.28095 23.7189 1.78105 24.219C2.28115 24.719 2.95942 25 3.66667 25H17C17.7072 25 18.3855 24.719 18.8856 24.219C19.3857 23.7189 19.6667 23.0406 19.6667 22.3333V6.33333C19.6667 5.62609 19.3857 4.94781 18.8856 4.44772C18.3855 3.94762 17.7072 3.66667 17 3.66667H14.3333M6.33333 3.66667C6.33333 4.37391 6.61429 5.05219 7.11438 5.55229C7.61448 6.05238 8.29276 6.33333 9 6.33333H11.6667C12.3739 6.33333 13.0522 6.05238 13.5523 5.55229C14.0524 5.05219 14.3333 4.37391 14.3333 3.66667M6.33333 3.66667C6.33333 2.95942 6.61429 2.28115 7.11438 1.78105C7.61448 1.28095 8.29276 1 9 1H11.6667C12.3739 1 13.0522 1.28095 13.5523 1.78105C14.0524 2.28115 14.3333 2.95942 14.3333 3.66667" stroke="black" stroke-width="2" stroke-linecap="round" stroke-linejoin="round"/>
</svg>
