<svg width="36" height="36" viewBox="0 0 36 36" fill="none" xmlns="http://www.w3.org/2000/svg">
<path d="M11.1716 11.3726C10.8001 11.8078 10.5055 12.3244 10.3045 12.8929C10.1035 13.4615 10 14.0709 10 14.6863C10 15.3017 10.1035 15.9111 10.3045 16.4797C10.5055 17.0482 10.8001 17.5649 11.1716 18L18 26L24.8284 18C25.5786 17.1212 26 15.9292 26 14.6863C26 13.4434 25.5786 12.2514 24.8284 11.3726C24.0783 10.4937 23.0609 10 22 10C20.9391 10 19.9217 10.4937 19.1716 11.3726L18 12.7452L16.8285 11.3726C16.457 10.9374 16.0161 10.5922 15.5308 10.3567C15.0455 10.1212 14.5253 10 14 10C13.4747 10 12.9546 10.1212 12.4693 10.3567C11.984 10.5922 11.543 10.9374 11.1716 11.3726Z" stroke="black" stroke-width="2" stroke-linecap="round" stroke-linejoin="round"/>
</svg>
