<svg width="34" height="31" viewBox="0 0 34 31" fill="none" xmlns="http://www.w3.org/2000/svg">
<path d="M16.2101 15.9706L20.9141 11.2667C21.1616 11.0177 21.3005 10.6809 21.3005 10.3299C21.3005 9.97881 21.1616 9.64202 20.9141 9.39306C20.7905 9.26851 20.6436 9.16966 20.4816 9.10219C20.3197 9.03473 20.146 9 19.9706 9C19.7952 9 19.6215 9.03473 19.4596 9.10219C19.2977 9.16966 19.1507 9.26851 19.0272 9.39306L13.3931 15.0272C13.2685 15.1507 13.1697 15.2977 13.1022 15.4596C13.0347 15.6215 13 15.7952 13 15.9706C13 16.146 13.0347 16.3197 13.1022 16.4816C13.1697 16.6436 13.2685 16.7905 13.3931 16.9141L19.0272 22.6146C19.1513 22.7378 19.2986 22.8352 19.4605 22.9013C19.6224 22.9675 19.7957 23.001 19.9706 23C20.1455 23.001 20.3189 22.9675 20.4808 22.9013C20.6427 22.8352 20.7899 22.7378 20.9141 22.6146C21.1616 22.3657 21.3005 22.0289 21.3005 21.6778C21.3005 21.3268 21.1616 20.99 20.9141 20.741L16.2101 15.9706Z" fill="black"/>
</svg>
