<svg width="22" height="17" viewBox="0 0 22 17" fill="none" xmlns="http://www.w3.org/2000/svg">
<path d="M1 4.21429L9.76667 9.85C10.1318 10.0849 10.561 10.2103 11 10.2103C11.439 10.2103 11.8682 10.0849 12.2333 9.85L21 4.21429M3.22222 16H18.7778C19.3671 16 19.9324 15.7742 20.3491 15.3724C20.7659 14.9705 21 14.4255 21 13.8571V3.14286C21 2.57454 20.7659 2.02949 20.3491 1.62763C19.9324 1.22576 19.3671 1 18.7778 1H3.22222C2.63285 1 2.06762 1.22576 1.65087 1.62763C1.23413 2.02949 1 2.57454 1 3.14286V13.8571C1 14.4255 1.23413 14.9705 1.65087 15.3724C2.06762 15.7742 2.63285 16 3.22222 16Z" stroke="black" stroke-width="2" stroke-linecap="round" stroke-linejoin="round"/>
</svg>
