<svg width="23" height="26" viewBox="0 0 23 26" fill="none" xmlns="http://www.w3.org/2000/svg">
<path d="M8.56819 3.14793C8.63442 2.45109 8.95809 1.80397 9.47594 1.33301C9.99379 0.862048 10.6686 0.601074 11.3686 0.601074C12.0686 0.601074 12.7434 0.862048 13.2613 1.33301C13.7791 1.80397 14.1028 2.45109 14.169 3.14793C14.2088 3.59808 14.3565 4.03202 14.5996 4.413C14.8426 4.79399 15.1739 5.11082 15.5653 5.33666C15.9567 5.56251 16.3968 5.69073 16.8483 5.71047C17.2998 5.7302 17.7493 5.64088 18.159 5.45005C18.7951 5.16127 19.5158 5.11948 20.181 5.33283C20.8462 5.54617 21.4082 5.99938 21.7577 6.60425C22.1071 7.20912 22.219 7.92237 22.0716 8.6052C21.9241 9.28802 21.5279 9.89156 20.96 10.2983C20.5902 10.5578 20.2883 10.9026 20.0799 11.3034C19.8715 11.7042 19.7627 12.1493 19.7627 12.6011C19.7627 13.0528 19.8715 13.498 20.0799 13.8988C20.2883 14.2996 20.5902 14.6443 20.96 14.9038C21.5279 15.3106 21.9241 15.9141 22.0716 16.597C22.219 17.2798 22.1071 17.993 21.7577 18.5979C21.4082 19.2028 20.8462 19.656 20.181 19.8693C19.5158 20.0827 18.7951 20.0409 18.159 19.7521C17.7493 19.5613 17.2998 19.4719 16.8483 19.4917C16.3968 19.5114 15.9567 19.6396 15.5653 19.8655C15.1739 20.0913 14.8426 20.4082 14.5996 20.7891C14.3565 21.1701 14.2088 21.6041 14.169 22.0542C14.1028 22.7511 13.7791 23.3982 13.2613 23.8691C12.7434 24.3401 12.0686 24.6011 11.3686 24.6011C10.6686 24.6011 9.99379 24.3401 9.47594 23.8691C8.95809 23.3982 8.63442 22.7511 8.56819 22.0542C8.52845 21.6039 8.38077 21.1698 8.13765 20.7887C7.89454 20.4076 7.56315 20.0906 7.17156 19.8648C6.77997 19.6389 6.33972 19.5107 5.88808 19.4911C5.43644 19.4715 4.98673 19.561 4.57703 19.7521C3.94096 20.0409 3.22019 20.0827 2.55501 19.8693C1.88982 19.656 1.32782 19.2028 0.978362 18.5979C0.628908 17.993 0.517012 17.2798 0.664451 16.597C0.81189 15.9141 1.20811 15.3106 1.77601 14.9038C2.14582 14.6443 2.44769 14.2996 2.6561 13.8988C2.8645 13.498 2.9733 13.0528 2.9733 12.6011C2.9733 12.1493 2.8645 11.7042 2.6561 11.3034C2.44769 10.9026 2.14582 10.5578 1.77601 10.2983C1.20891 9.89135 0.813386 9.28805 0.666304 8.60569C0.519221 7.92333 0.631089 7.21066 0.980166 6.60618C1.32924 6.00171 1.89059 5.5486 2.55512 5.33494C3.21964 5.12127 3.93987 5.1623 4.57583 5.45005C4.98547 5.64088 5.43506 5.7302 5.88654 5.71047C6.33802 5.69073 6.7781 5.56251 7.16953 5.33666C7.56095 5.11082 7.89221 4.79399 8.13525 4.413C8.37829 4.03202 8.52597 3.59808 8.56578 3.14793" stroke="black" stroke-width="1.20216" stroke-linecap="round" stroke-linejoin="round"/>
<path d="M11.3679 16.2082C13.3597 16.2082 14.9744 14.5935 14.9744 12.6017C14.9744 10.6099 13.3597 8.99524 11.3679 8.99524C9.37614 8.99524 7.76147 10.6099 7.76147 12.6017C7.76147 14.5935 9.37614 16.2082 11.3679 16.2082Z" stroke="black" stroke-width="1.20216" stroke-linecap="round" stroke-linejoin="round"/>
</svg>
