<svg width="36" height="36" viewBox="0 0 36 36" fill="none" xmlns="http://www.w3.org/2000/svg">
<path d="M10 18L11.7778 16.2222M11.7778 16.2222L18 10L24.2222 16.2222M11.7778 16.2222V25.1111C11.7778 25.3469 11.8714 25.573 12.0381 25.7397C12.2048 25.9064 12.4309 26 12.6667 26H15.3333M24.2222 16.2222L26 18M24.2222 16.2222V25.1111C24.2222 25.3469 24.1286 25.573 23.9619 25.7397C23.7952 25.9064 23.5691 26 23.3333 26H20.6667M15.3333 26C15.5691 26 15.7952 25.9064 15.9619 25.7397C16.1286 25.573 16.2222 25.3469 16.2222 25.1111V21.5556C16.2222 21.3198 16.3159 21.0937 16.4826 20.927C16.6493 20.7603 16.8754 20.6667 17.1111 20.6667H18.8889C19.1246 20.6667 19.3507 20.7603 19.5174 20.927C19.6841 21.0937 19.7778 21.3198 19.7778 21.5556V25.1111C19.7778 25.3469 19.8714 25.573 20.0381 25.7397C20.2048 25.9064 20.4309 26 20.6667 26M15.3333 26H20.6667" stroke="black" stroke-width="2" stroke-linecap="round" stroke-linejoin="round"/>
</svg>
